<?xml version="1.0" encoding="UTF-8" standalone="no"?>
<!-- Created with Inkscape (http://www.inkscape.org/) -->

<svg width="199.99998mm" height="199.99998mm" viewBox="0 0 199.99998 199.99998" version="1.1" id="svg5" inkscape:version="1.1 (c68e22c387, 2021-05-23)" sodipodi:docname="peace-sign-plain.svg" inkscape:export-filename="C:\Users\Geoffrey House User\Documents\GitHub\peace-panels\img\peace-sign-plain.png" inkscape:export-xdpi="150" inkscape:export-ydpi="150" xmlns:inkscape="http://www.inkscape.org/namespaces/inkscape" xmlns:sodipodi="http://sodipodi.sourceforge.net/DTD/sodipodi-0.dtd" xmlns="http://www.w3.org/2000/svg" xmlns:svg="http://www.w3.org/2000/svg">
  <sodipodi:namedview id="namedview7" pagecolor="#ffffff" bordercolor="#666666" borderopacity="1.0" inkscape:pageshadow="2" inkscape:pageopacity="0.0" inkscape:pagecheckerboard="0" inkscape:document-units="mm" showgrid="false" inkscape:snap-global="true" inkscape:snap-center="true" inkscape:zoom="0.45254834" inkscape:cx="434.20776" inkscape:cy="197.76893" inkscape:window-width="1680" inkscape:window-height="987" inkscape:window-x="1672" inkscape:window-y="-8" inkscape:window-maximized="1" inkscape:current-layer="layer1" fit-margin-top="0" fit-margin-left="0" fit-margin-right="0" fit-margin-bottom="0">
    <inkscape:grid type="xygrid" id="grid12106" originx="-2.0627056" originy="-16.42608"></inkscape:grid>
  </sodipodi:namedview>
  <defs id="defs2"></defs>
  <g inkscape:label="Layer 1" inkscape:groupmode="layer" id="layer1" transform="translate(-2.0627057,-16.426081)">
    <path id="path1090-9-8" style="fill: none; fill-opacity: .987952; stroke: #fff; stroke-width: 23.2933px; stroke-miterlimit: 4; stroke-dasharray: none; paint-order: fill markers stroke" d="M 190.41604,116.42609 A 88.353339,88.353339 0 0 1 102.06271,204.77942 88.353339,88.353339 0 0 1 13.709356,116.42609 88.353339,88.353339 0 0 1 102.06271,28.072731 88.353339,88.353339 0 0 1 190.41604,116.42609 Z"></path>
    <path id="rect1339-9-2" style="fill: none; fill-opacity: .987952; stroke: #fff; stroke-width: 23.2933px; stroke-miterlimit: 4; stroke-dasharray: none; stroke-dashoffset: 0; paint-order: fill markers stroke" d="m 39.630923,178.85786 62.431787,-62.43177 v 0 l 62.4702,62.4702"></path>
    <path style="fill: none; stroke: #fff; stroke-width: 23.2933px; stroke-linecap: butt; stroke-linejoin: miter; stroke-miterlimit: 4; stroke-dasharray: none; stroke-opacity: 1" d="M 102.06271,28.072731 V 204.77942" id="path4212-8-2"></path>
    <path style="color: #000; fill: #ebebeb; stroke-width: .258812px; -inkscape-stroke: none; paint-order: fill markers stroke" d="m 145.13846,166.88544 2.5e-4,2.5e-4" id="path15327"></path>
    <path id="path1090" style="fill: none; fill-opacity: .987952; stroke: #e6e6e6; stroke-width: 16.8229px; paint-order: fill markers stroke" d="M 190.41604,116.42609 A 88.353339,88.353339 0 0 1 102.06271,204.77942 88.353339,88.353339 0 0 1 13.709359,116.42609 88.353339,88.353339 0 0 1 102.06271,28.072735 88.353339,88.353339 0 0 1 190.41604,116.42609 Z"></path>
    <path id="rect1339" style="fill: none; fill-opacity: .987952; stroke: #e6e6e6; stroke-width: 16.8229px; stroke-miterlimit: 4; stroke-dasharray: none; stroke-dashoffset: 0; paint-order: fill markers stroke" d="m 39.63092,178.85786 62.43179,-62.43177 v 0 l 62.4702,62.4702"></path>
    <path style="fill: none; stroke: #e6e6e6; stroke-width: 16.8229px; stroke-linecap: butt; stroke-linejoin: miter; stroke-miterlimit: 4; stroke-dasharray: none; stroke-opacity: 1" d="M 102.06271,28.072735 V 204.77942" id="path4212"></path>
    <path style="color: #000; fill: #ebebeb; stroke-width: .258812px; -inkscape-stroke: none; paint-order: fill markers stroke" d="m 145.13847,166.88544 2.5e-4,2.5e-4" id="path15327-9"></path>
    <path id="path1090-9" style="fill: none; fill-opacity: .987952; stroke: #efa; stroke-width: 12.9409px; stroke-miterlimit: 4; stroke-dasharray: none; paint-order: fill markers stroke" d="M 190.41604,116.42609 A 88.353339,88.353339 0 0 1 102.06271,204.77942 88.353339,88.353339 0 0 1 13.709358,116.42609 88.353339,88.353339 0 0 1 102.06271,28.072732 88.353339,88.353339 0 0 1 190.41604,116.42609 Z"></path>
    <path id="rect1339-9" style="fill: none; fill-opacity: .987952; stroke: #efa; stroke-width: 12.9409px; stroke-miterlimit: 4; stroke-dasharray: none; stroke-dashoffset: 0; paint-order: fill markers stroke" d="m 39.630926,178.85786 62.431784,-62.43177 v 0 l 62.4702,62.4702"></path>
    <path style="fill: none; stroke: #efa; stroke-width: 12.9409px; stroke-linecap: butt; stroke-linejoin: miter; stroke-miterlimit: 4; stroke-dasharray: none; stroke-opacity: 1" d="M 102.06271,28.072732 V 204.77942" id="path4212-8"></path>
  </g>
</svg>
