<svg width="755.905" height="755.905" viewBox="0 0 200 200" version="1.1" id="svg5" xmlns="http://www.w3.org/2000/svg"><g id="layer1" transform="translate(-2.063 -16.426)"><path id="path1090-9-8" style="fill:none;fill-opacity:.987952;stroke:#fff;stroke-width:23.2933px;stroke-miterlimit:4;stroke-dasharray:none;paint-order:fill markers stroke" d="M190.416 116.426a88.353 88.353 0 0 1-88.353 88.353 88.353 88.353 0 0 1-88.354-88.353 88.353 88.353 0 0 1 88.354-88.353 88.353 88.353 0 0 1 88.353 88.353Z"/><path id="rect1339-9-2" style="fill:none;fill-opacity:.987952;stroke:#fff;stroke-width:23.2933px;stroke-miterlimit:4;stroke-dasharray:none;stroke-dashoffset:0;paint-order:fill markers stroke" d="m39.63 178.858 62.433-62.432 62.47 62.47"/><path style="fill:none;stroke:#fff;stroke-width:23.2933px;stroke-linecap:butt;stroke-linejoin:miter;stroke-miterlimit:4;stroke-dasharray:none;stroke-opacity:1" d="M102.063 28.073v176.706" id="path4212-8-2"/><path style="color:#000;fill:#ebebeb;stroke-width:.258812px;-inkscape-stroke:none;paint-order:fill markers stroke" d="M145.138 166.885" id="path15327"/><path id="path1090" style="fill:none;fill-opacity:.987952;stroke:#e6e6e6;stroke-width:16.8229px;paint-order:fill markers stroke" d="M190.416 116.426a88.353 88.353 0 0 1-88.353 88.353 88.353 88.353 0 0 1-88.354-88.353 88.353 88.353 0 0 1 88.354-88.353 88.353 88.353 0 0 1 88.353 88.353Z"/><path id="rect1339" style="fill:none;fill-opacity:.987952;stroke:#e6e6e6;stroke-width:16.8229px;stroke-miterlimit:4;stroke-dasharray:none;stroke-dashoffset:0;paint-order:fill markers stroke" d="m39.63 178.858 62.433-62.432 62.47 62.47"/><path style="fill:none;stroke:#e6e6e6;stroke-width:16.8229px;stroke-linecap:butt;stroke-linejoin:miter;stroke-miterlimit:4;stroke-dasharray:none;stroke-opacity:1" d="M102.063 28.073v176.706" id="path4212"/><path style="color:#000;fill:#ebebeb;stroke-width:.258812px;-inkscape-stroke:none;paint-order:fill markers stroke" d="M145.138 166.885" id="path15327-9"/><path id="path1090-9" style="fill:none;fill-opacity:.987952;stroke:#efa;stroke-width:12.9409px;stroke-miterlimit:4;stroke-dasharray:none;paint-order:fill markers stroke" d="M190.416 116.426a88.353 88.353 0 0 1-88.353 88.353 88.353 88.353 0 0 1-88.354-88.353 88.353 88.353 0 0 1 88.354-88.353 88.353 88.353 0 0 1 88.353 88.353Z"/><path id="rect1339-9" style="fill:none;fill-opacity:.987952;stroke:#efa;stroke-width:12.9409px;stroke-miterlimit:4;stroke-dasharray:none;stroke-dashoffset:0;paint-order:fill markers stroke" d="m39.63 178.858 62.433-62.432 62.47 62.47"/><path style="fill:none;stroke:#efa;stroke-width:12.9409px;stroke-linecap:butt;stroke-linejoin:miter;stroke-miterlimit:4;stroke-dasharray:none;stroke-opacity:1" d="M102.063 28.073v176.706" id="path4212-8"/></g></svg>