<?xml version="1.0" encoding="UTF-8" standalone="no"?>
<!-- Created with Inkscape (http://www.inkscape.org/) -->

<svg width="210mm" height="297mm" viewBox="0 0 210 297" version="1.1" id="svg5" inkscape:version="1.1 (c68e22c387, 2021-05-23)" sodipodi:docname="peace-sign.svg" xmlns:inkscape="http://www.inkscape.org/namespaces/inkscape" xmlns:sodipodi="http://sodipodi.sourceforge.net/DTD/sodipodi-0.dtd" xmlns="http://www.w3.org/2000/svg" xmlns:svg="http://www.w3.org/2000/svg">
  <sodipodi:namedview id="namedview7" pagecolor="#ffffff" bordercolor="#666666" borderopacity="1.0" inkscape:pageshadow="2" inkscape:pageopacity="0.0" inkscape:pagecheckerboard="0" inkscape:document-units="mm" showgrid="false" inkscape:snap-global="true" inkscape:snap-center="true" inkscape:zoom="0.67081229" inkscape:cx="643.24999" inkscape:cy="382.37224" inkscape:window-width="1680" inkscape:window-height="987" inkscape:window-x="1672" inkscape:window-y="-8" inkscape:window-maximized="1" inkscape:current-layer="layer1">
    <inkscape:grid type="xygrid" id="grid12106"></inkscape:grid>
  </sodipodi:namedview>
  <defs id="defs2"></defs>
  <g inkscape:label="Layer 1" inkscape:groupmode="layer" id="layer1">
    <path id="path1090-9-8" style="fill: none; fill-opacity: .987952; stroke: #fff; stroke-width: 23.8125px; stroke-miterlimit: 4; stroke-dasharray: none; paint-order: fill markers stroke" d="M 189.32271,108.07171 A 90.322708,90.322708 0 0 1 98.999999,198.39442 90.322708,90.322708 0 0 1 8.6772892,108.07171 90.322708,90.322708 0 0 1 98.999999,17.748997 90.322708,90.322708 0 0 1 189.32271,108.07171 Z"></path>
    <path id="rect1339-9-2" style="fill: none; fill-opacity: .987952; stroke: #fff; stroke-width: 23.8125px; stroke-miterlimit: 4; stroke-dasharray: none; stroke-dashoffset: 0; paint-order: fill markers stroke" d="m 35.176639,171.89507 63.82336,-63.82336 v 0 l 63.862641,63.86264"></path>
    <path style="fill: none; stroke: #fff; stroke-width: 23.8125px; stroke-linecap: butt; stroke-linejoin: miter; stroke-miterlimit: 4; stroke-dasharray: none; stroke-opacity: 1" d="M 98.999999,17.748997 V 198.39442" id="path4212-8-2"></path>
    <path style="color: #000; fill: #ebebeb; -inkscape-stroke: none; paint-order: fill markers stroke" d="m 540.60816,603.42347 9.8e-4,9.9e-4" id="path15327" transform="scale(0.26458333)"></path>
    <path id="path1090" style="fill: none; fill-opacity: .987952; stroke: #e6e6e6; stroke-width: 17.1979px; paint-order: fill markers stroke" d="M 189.32271,108.07171 A 90.322708,90.322708 0 0 1 99,198.39442 90.322708,90.322708 0 0 1 8.6772919,108.07171 90.322708,90.322708 0 0 1 99,17.749001 90.322708,90.322708 0 0 1 189.32271,108.07171 Z"></path>
    <path id="rect1339" style="fill: none; fill-opacity: .987952; stroke: #e6e6e6; stroke-width: 64.9999px; stroke-miterlimit: 4; stroke-dasharray: none; stroke-dashoffset: 0; paint-order: fill markers stroke" d="M 132.95107 649.68218 L 374.17324 408.46001 L 374.17324 408.46001 L 615.54385 649.83062 " transform="scale(0.26458333)"></path>
    <path style="fill: none; stroke: #e6e6e6; stroke-width: 17.1979px; stroke-linecap: butt; stroke-linejoin: miter; stroke-opacity: 1; stroke-miterlimit: 4; stroke-dasharray: none" d="M 98.999999,17.749001 V 198.39442" id="path4212"></path>
    <path style="color: #000; fill: #ebebeb; stroke-width: .264583px; -inkscape-stroke: none; paint-order: fill markers stroke" d="m 143.03591,159.65579 2.6e-4,2.6e-4" id="path15327-9"></path>
    <path id="path1090-9" style="fill: none; fill-opacity: .987952; stroke: #efa; stroke-width: 13.2292px; stroke-miterlimit: 4; stroke-dasharray: none; paint-order: fill markers stroke" d="M 189.32271,108.07171 A 90.322708,90.322708 0 0 1 99.000002,198.39442 90.322708,90.322708 0 0 1 8.6772916,108.07171 90.322708,90.322708 0 0 1 99.000002,17.748998 90.322708,90.322708 0 0 1 189.32271,108.07171 Z"></path>
    <path id="rect1339-9" style="fill: none; fill-opacity: .987952; stroke: #efa; stroke-width: 13.2292px; stroke-miterlimit: 4; stroke-dasharray: none; stroke-dashoffset: 0; paint-order: fill markers stroke" d="m 35.176642,171.89507 63.82336,-63.82336 v 0 l 63.862638,63.86264"></path>
    <path style="fill: none; stroke: #efa; stroke-width: 13.2292px; stroke-linecap: butt; stroke-linejoin: miter; stroke-miterlimit: 4; stroke-dasharray: none; stroke-opacity: 1" d="M 99.000002,17.748998 V 198.39442" id="path4212-8"></path>
  </g>
</svg>
