<?xml version="1.0" encoding="UTF-8" standalone="no"?>
<!-- Created with Inkscape (http://www.inkscape.org/) -->

<svg
   width="210mm"
   height="297mm"
   viewBox="0 0 210 297"
   version="1.1"
   id="svg5"
   xmlns="http://www.w3.org/2000/svg"
   xmlns:svg="http://www.w3.org/2000/svg">
  <defs
     id="defs2" />
  <g
     id="layer1">
    <path
       id="path1090-9-8"
       style="fill:none;fill-opacity:0.987952;stroke:#ffffff;stroke-width:23.8125;stroke-miterlimit:4;stroke-dasharray:none;paint-order:fill markers stroke"
       d="M 194.61438,118.65505 A 90.322708,90.322708 0 0 1 104.29167,208.97776 90.322708,90.322708 0 0 1 13.968956,118.65505 90.322708,90.322708 0 0 1 104.29167,28.332331 90.322708,90.322708 0 0 1 194.61438,118.65505 Z" />
    <path
       id="rect1339-9-2"
       style="fill:none;fill-opacity:0.987952;stroke:#ffffff;stroke-width:23.8125;stroke-miterlimit:4;stroke-dasharray:none;stroke-dashoffset:0;paint-order:fill markers stroke"
       d="m 40.468306,182.47841 63.823364,-63.82336 v 0 l 63.86264,63.86264" />
    <path
       style="fill:none;stroke:#ffffff;stroke-width:23.8125;stroke-linecap:butt;stroke-linejoin:miter;stroke-miterlimit:4;stroke-dasharray:none;stroke-opacity:1"
       d="M 104.29167,28.332331 V 208.97776"
       id="path4212-8-2" />
    <path
       style="color:#000000;fill:#ebebeb;stroke-width:0.264583;-inkscape-stroke:none;paint-order:fill markers stroke"
       d="m 148.32757,170.23913 2.6e-4,2.6e-4"
       id="path15327" />
    <path
       id="path1090"
       style="fill:none;fill-opacity:0.987952;stroke:#e6e6e6;stroke-width:17.1979;paint-order:fill markers stroke"
       d="M 194.61438,118.65505 A 90.322708,90.322708 0 0 1 104.29167,208.97776 90.322708,90.322708 0 0 1 13.968959,118.65505 90.322708,90.322708 0 0 1 104.29167,28.332335 90.322708,90.322708 0 0 1 194.61438,118.65505 Z" />
    <path
       id="rect1339"
       style="fill:none;fill-opacity:0.987952;stroke:#e6e6e6;stroke-width:17.1979;stroke-miterlimit:4;stroke-dasharray:none;stroke-dashoffset:0;paint-order:fill markers stroke"
       d="m 40.468303,182.47841 63.823367,-63.82336 v 0 l 63.86264,63.86264" />
    <path
       style="fill:none;stroke:#e6e6e6;stroke-width:17.1979;stroke-linecap:butt;stroke-linejoin:miter;stroke-miterlimit:4;stroke-dasharray:none;stroke-opacity:1"
       d="M 104.29167,28.332335 V 208.97776"
       id="path4212" />
    <path
       style="color:#000000;fill:#ebebeb;stroke-width:0.264583;-inkscape-stroke:none;paint-order:fill markers stroke"
       d="m 148.32758,170.23913 2.6e-4,2.6e-4"
       id="path15327-9" />
    <path
       id="path1090-9"
       style="fill:none;fill-opacity:0.987952;stroke:#eeffaa;stroke-width:13.2292;stroke-miterlimit:4;stroke-dasharray:none;paint-order:fill markers stroke"
       d="M 194.61438,118.65505 A 90.322708,90.322708 0 0 1 104.29167,208.97776 90.322708,90.322708 0 0 1 13.968958,118.65505 90.322708,90.322708 0 0 1 104.29167,28.332332 90.322708,90.322708 0 0 1 194.61438,118.65505 Z" />
    <path
       id="rect1339-9"
       style="fill:none;fill-opacity:0.987952;stroke:#eeffaa;stroke-width:13.2292;stroke-miterlimit:4;stroke-dasharray:none;stroke-dashoffset:0;paint-order:fill markers stroke"
       d="m 40.468309,182.47841 63.823361,-63.82336 v 0 l 63.86264,63.86264" />
    <path
       style="fill:none;stroke:#eeffaa;stroke-width:13.2292;stroke-linecap:butt;stroke-linejoin:miter;stroke-miterlimit:4;stroke-dasharray:none;stroke-opacity:1"
       d="M 104.29167,28.332332 V 208.97776"
       id="path4212-8" />
  </g>
</svg>
